<svg width="1653" height="993" xmlns="http://www.w3.org/2000/svg" xmlns:xlink="http://www.w3.org/1999/xlink" overflow="hidden"><defs><clipPath id="clip0"><rect x="944" y="344" width="1653" height="993"/></clipPath><clipPath id="clip1"><rect x="945" y="345" width="1650" height="990"/></clipPath><clipPath id="clip2"><rect x="1173" y="515" width="988" height="620"/></clipPath><clipPath id="clip3"><rect x="945" y="345" width="1650" height="990"/></clipPath><clipPath id="clip4"><rect x="945" y="345" width="1650" height="990"/></clipPath><clipPath id="clip5"><rect x="945" y="345" width="1650" height="990"/></clipPath><clipPath id="clip6"><rect x="945" y="345" width="1650" height="990"/></clipPath><clipPath id="clip7"><rect x="945" y="345" width="1650" height="990"/></clipPath><clipPath id="clip8"><rect x="945" y="345" width="1650" height="990"/></clipPath><clipPath id="clip9"><rect x="945" y="345" width="1650" height="990"/></clipPath><clipPath id="clip10"><rect x="945" y="345" width="1650" height="990"/></clipPath><clipPath id="clip11"><rect x="945" y="345" width="1650" height="990"/></clipPath><clipPath id="clip12"><rect x="945" y="345" width="1650" height="990"/></clipPath><clipPath id="clip13"><rect x="945" y="345" width="1650" height="990"/></clipPath><clipPath id="clip14"><rect x="945" y="345" width="1650" height="990"/></clipPath><clipPath id="clip15"><rect x="945" y="345" width="1650" height="990"/></clipPath><clipPath id="clip16"><rect x="945" y="345" width="1650" height="990"/></clipPath><clipPath id="clip17"><rect x="945" y="345" width="1650" height="990"/></clipPath><clipPath id="clip18"><rect x="945" y="345" width="1650" height="990"/></clipPath><clipPath id="clip19"><rect x="945" y="345" width="1650" height="990"/></clipPath></defs><g clip-path="url(#clip0)" transform="translate(-944 -344)"><rect x="945" y="345" width="1650" height="990" fill="#FFFFFF"/><g clip-path="url(#clip1)"><path d="M1173.5 1131.5 2158.5 1131.5" stroke="#D9D9D9" stroke-width="3.4375" stroke-linejoin="round" stroke-miterlimit="10" fill="none" fill-rule="evenodd"/></g><g clip-path="url(#clip2)"><path d="M1272 1111C1337.67 1090.46 1403.33 1076.76 1469 1049.37 1534.67 1021.99 1600.33 987.75 1666 946.666 1731.67 905.583 1797.33 857.653 1863 802.875 1928.67 748.097 1994.33 679.625 2060 618" stroke="#4472C4" stroke-width="10.3125" stroke-linecap="round" stroke-linejoin="round" stroke-miterlimit="10" fill="none"/></g><g clip-path="url(#clip3)"><text fill="#595959" font-family="Calibri,Calibri_MSFontService,sans-serif" font-weight="400" font-size="41" transform="matrix(1 0 0 1 1114.09 1144)">0</text></g><g clip-path="url(#clip4)"><text fill="#595959" font-family="Calibri,Calibri_MSFontService,sans-serif" font-weight="400" font-size="41" transform="matrix(1 0 0 1 1093.19 1041)">20</text></g><g clip-path="url(#clip5)"><text fill="#595959" font-family="Calibri,Calibri_MSFontService,sans-serif" font-weight="400" font-size="41" transform="matrix(1 0 0 1 1093.19 938)">40</text></g><g clip-path="url(#clip6)"><text fill="#595959" font-family="Calibri,Calibri_MSFontService,sans-serif" font-weight="400" font-size="41" transform="matrix(1 0 0 1 1093.19 835)">60</text></g><g clip-path="url(#clip7)"><text fill="#595959" font-family="Calibri,Calibri_MSFontService,sans-serif" font-weight="400" font-size="41" transform="matrix(1 0 0 1 1093.19 733)">80</text></g><g clip-path="url(#clip8)"><text fill="#595959" font-family="Calibri,Calibri_MSFontService,sans-serif" font-weight="400" font-size="41" transform="matrix(1 0 0 1 1072.29 630)">100</text></g><g clip-path="url(#clip9)"><text fill="#595959" font-family="Calibri,Calibri_MSFontService,sans-serif" font-weight="400" font-size="41" transform="matrix(1 0 0 1 1072.29 527)">120</text></g><g clip-path="url(#clip10)"><text fill="#595959" font-family="Calibri,Calibri_MSFontService,sans-serif" font-weight="400" font-size="41" transform="matrix(1 0 0 1 1261.29 1197)">2</text></g><g clip-path="url(#clip11)"><text fill="#595959" font-family="Calibri,Calibri_MSFontService,sans-serif" font-weight="400" font-size="41" transform="matrix(1 0 0 1 1458.24 1197)">4</text></g><g clip-path="url(#clip12)"><text fill="#595959" font-family="Calibri,Calibri_MSFontService,sans-serif" font-weight="400" font-size="41" transform="matrix(1 0 0 1 1655.2 1197)">6</text></g><g clip-path="url(#clip13)"><text fill="#595959" font-family="Calibri,Calibri_MSFontService,sans-serif" font-weight="400" font-size="41" transform="matrix(1 0 0 1 1852.16 1197)">8</text></g><g clip-path="url(#clip14)"><text fill="#595959" font-family="Calibri,Calibri_MSFontService,sans-serif" font-weight="400" font-size="41" transform="matrix(1 0 0 1 2038.66 1197)">10</text></g><g clip-path="url(#clip15)"><text fill="#595959" font-family="Calibri,Calibri_MSFontService,sans-serif" font-weight="400" font-size="46" transform="matrix(6.12323e-17 -1 1 6.12323e-17 1046.6 888)">O(n^2)</text></g><g clip-path="url(#clip16)"><text fill="#595959" font-family="Calibri,Calibri_MSFontService,sans-serif" font-weight="400" font-size="46" transform="matrix(1 0 0 1 1653.61 1266)">n</text></g><g clip-path="url(#clip17)"><text fill="#595959" font-family="Calibri,Calibri_MSFontService,sans-serif" font-weight="400" font-size="64" transform="matrix(1 0 0 1 1514.07 441)">Grafik Kompleksitas</text></g><g clip-path="url(#clip18)"><path d="M2230 900 2318 900" stroke="#4472C4" stroke-width="10.3125" stroke-linecap="round" stroke-linejoin="round" stroke-miterlimit="10" fill="none" fill-rule="evenodd"/></g><g clip-path="url(#clip19)"><text fill="#595959" font-family="Calibri,Calibri_MSFontService,sans-serif" font-weight="400" font-size="41" transform="matrix(1 0 0 1 2327.05 912)">Kompleksitas</text></g><rect x="945.5" y="345.5" width="1650" height="990" stroke="#D9D9D9" stroke-width="3.4375" stroke-linejoin="round" stroke-miterlimit="10" fill="none"/></g></svg>